<svg xmlns="http://www.w3.org/2000/svg" xmlns:xlink="http://www.w3.org/1999/xlink" width="100" zoomAndPan="magnify" viewBox="0 0 75 44.999999" height="60" preserveAspectRatio="xMidYMid meet" version="1.0"><defs><g/></defs><g fill="#EFF2F7" fill-opacity="1"><g transform="translate(2.332032, 31.499998)"><g><path d="M 2.0625 -17.765625 C 2.0625 -18.203125 2.257812 -18.441406 2.65625 -18.484375 C 4.0625 -18.734375 5.445312 -18.859375 6.8125 -18.859375 C 9.914062 -18.859375 12.222656 -18.082031 13.734375 -16.53125 C 15.253906 -14.976562 16.015625 -12.679688 16.015625 -9.640625 C 16.015625 -6.429688 15.257812 -4.007812 13.75 -2.375 C 12.25 -0.738281 9.9375 0.078125 6.8125 0.078125 C 5.445312 0.078125 4.0625 -0.0390625 2.65625 -0.28125 C 2.257812 -0.332031 2.0625 -0.570312 2.0625 -1 Z M 4.703125 -1.46875 C 5.359375 -1.34375 6.0625 -1.28125 6.8125 -1.28125 C 7.945312 -1.28125 8.925781 -1.4375 9.75 -1.75 C 10.582031 -2.0625 11.273438 -2.554688 11.828125 -3.234375 C 12.378906 -3.910156 12.789062 -4.773438 13.0625 -5.828125 C 13.34375 -6.878906 13.484375 -8.148438 13.484375 -9.640625 C 13.484375 -12.390625 12.925781 -14.382812 11.8125 -15.625 C 10.707031 -16.863281 9.039062 -17.484375 6.8125 -17.484375 C 6.0625 -17.484375 5.359375 -17.425781 4.703125 -17.3125 Z M 4.703125 -1.46875 "/></g></g></g><g fill="#EFF2F7" fill-opacity="1"><g transform="translate(19.026088, 31.499998)"><g><path d="M 12.65625 -18.59375 C 13.101562 -18.59375 13.328125 -18.367188 13.328125 -17.921875 L 13.328125 -17.90625 C 13.328125 -17.457031 13.101562 -17.234375 12.65625 -17.234375 L 4.6875 -17.234375 L 4.6875 -10.75 L 12.171875 -10.75 C 12.609375 -10.75 12.828125 -10.523438 12.828125 -10.078125 C 12.828125 -9.671875 12.609375 -9.46875 12.171875 -9.46875 L 4.6875 -9.46875 L 4.6875 -1.546875 L 12.65625 -1.546875 C 13.101562 -1.546875 13.328125 -1.320312 13.328125 -0.875 L 13.328125 -0.84375 C 13.328125 -0.40625 13.101562 -0.1875 12.65625 -0.1875 L 2.703125 -0.1875 C 2.253906 -0.1875 2.03125 -0.40625 2.03125 -0.84375 L 2.03125 -17.921875 C 2.03125 -18.367188 2.253906 -18.59375 2.703125 -18.59375 Z M 12.65625 -18.59375 "/></g></g></g><g fill="#EFF2F7" fill-opacity="1"><g transform="translate(33.893828, 31.499998)"><g><path d="M 18.203125 -18.59375 C 18.648438 -18.59375 18.875 -18.367188 18.875 -17.921875 L 18.875 -0.84375 C 18.875 -0.40625 18.648438 -0.1875 18.203125 -0.1875 L 16.890625 -0.1875 C 16.453125 -0.1875 16.234375 -0.40625 16.234375 -0.84375 L 16.234375 -14.375 L 11.984375 -6.25 C 11.816406 -5.925781 11.550781 -5.765625 11.1875 -5.765625 L 9.75 -5.765625 C 9.382812 -5.765625 9.117188 -5.925781 8.953125 -6.25 L 4.6875 -14.375 L 4.6875 -0.84375 C 4.6875 -0.40625 4.460938 -0.1875 4.015625 -0.1875 L 2.78125 -0.1875 C 2.332031 -0.1875 2.109375 -0.40625 2.109375 -0.84375 L 2.109375 -17.921875 C 2.109375 -18.367188 2.332031 -18.59375 2.78125 -18.59375 L 4.25 -18.59375 C 4.601562 -18.59375 4.867188 -18.429688 5.046875 -18.109375 L 10.46875 -7.84375 L 15.875 -18.109375 C 16.039062 -18.429688 16.304688 -18.59375 16.671875 -18.59375 Z M 18.203125 -18.59375 "/></g></g></g><g fill="#EFF2F7" fill-opacity="1"><g transform="translate(54.574914, 31.499998)"><g><path d="M 9.1875 -18.859375 C 10.488281 -18.859375 11.648438 -18.640625 12.671875 -18.203125 C 13.691406 -17.765625 14.550781 -17.132812 15.25 -16.3125 C 15.957031 -15.5 16.492188 -14.507812 16.859375 -13.34375 C 17.222656 -12.175781 17.40625 -10.859375 17.40625 -9.390625 C 17.40625 -7.898438 17.238281 -6.597656 16.90625 -5.484375 C 16.570312 -4.367188 16.019531 -3.347656 15.25 -2.421875 C 14.601562 -1.648438 13.757812 -1.039062 12.71875 -0.59375 C 11.675781 -0.144531 10.5 0.078125 9.1875 0.078125 C 7.882812 0.078125 6.722656 -0.140625 5.703125 -0.578125 C 4.679688 -1.015625 3.816406 -1.640625 3.109375 -2.453125 C 2.410156 -3.265625 1.875 -4.253906 1.5 -5.421875 C 1.132812 -6.585938 0.953125 -7.910156 0.953125 -9.390625 C 0.953125 -10.859375 1.132812 -12.175781 1.5 -13.34375 C 1.875 -14.507812 2.410156 -15.5 3.109375 -16.3125 C 3.816406 -17.132812 4.679688 -17.765625 5.703125 -18.203125 C 6.722656 -18.640625 7.882812 -18.859375 9.1875 -18.859375 Z M 9.1875 -17.484375 C 7.445312 -17.484375 6.085938 -16.8125 5.109375 -15.46875 C 4.140625 -14.125 3.65625 -12.097656 3.65625 -9.390625 C 3.65625 -6.679688 4.140625 -4.648438 5.109375 -3.296875 C 6.085938 -1.953125 7.445312 -1.28125 9.1875 -1.28125 C 10.914062 -1.28125 12.269531 -1.953125 13.25 -3.296875 C 14.226562 -4.648438 14.71875 -6.679688 14.71875 -9.390625 C 14.71875 -10.722656 14.59375 -11.90625 14.34375 -12.9375 C 14.09375 -13.976562 13.742188 -14.800781 13.296875 -15.40625 C 12.734375 -16.175781 12.125 -16.710938 11.46875 -17.015625 C 10.820312 -17.328125 10.0625 -17.484375 9.1875 -17.484375 Z M 9.1875 -17.484375 "/></g></g></g></svg>